<?xml version="1.0" standalone="no"?>
<!DOCTYPE svg PUBLIC "-//W3C//DTD SVG 20010904//EN"
 "http://www.w3.org/TR/2001/REC-SVG-20010904/DTD/svg10.dtd">
<svg version="1.0" xmlns="http://www.w3.org/2000/svg"
 width="240.000000pt" height="240.000000pt" viewBox="0 0 240.000000 240.000000"
 preserveAspectRatio="xMidYMid meet">

<g transform="translate(0.000000,240.000000) scale(0.100000,-0.100000)"
fill="#000000" stroke="none">
<path d="M847 1563 c-186 -186 -343 -346 -348 -356 -15 -26 -1 -56 28 -63 23
-6 57 25 349 317 l324 324 323 -323 c213 -212 329 -322 343 -322 26 0 44 18
44 45 0 24 -686 715 -710 715 -8 0 -167 -152 -353 -337z"/>
<path d="M928 1413 l-258 -258 0 -277 c-1 -153 2 -282 5 -288 4 -6 83 -10 205
-10 171 0 199 2 204 16 3 9 6 101 6 205 l0 190 113 -3 112 -3 5 -200 5 -200
205 0 205 0 3 280 2 280 -262 262 c-145 145 -269 263 -278 263 -8 0 -130 -116
-272 -257z"/>
</g>
</svg>
