<?xml version="1.0" standalone="no"?>
<!DOCTYPE svg PUBLIC "-//W3C//DTD SVG 20010904//EN"
 "http://www.w3.org/TR/2001/REC-SVG-20010904/DTD/svg10.dtd">
<svg version="1.0" xmlns="http://www.w3.org/2000/svg"
 width="240.000000pt" height="240.000000pt" viewBox="0 0 240.000000 240.000000"
 preserveAspectRatio="xMidYMid meet">

<g transform="translate(0.000000,240.000000) scale(0.100000,-0.100000)"
fill="#000000" stroke="none">
<path d="M260 2060 c-27 -27 -25 -55 6 -79 24 -19 40 -21 144 -21 l118 0 15
-62 c8 -35 79 -331 157 -658 78 -327 149 -605 156 -618 10 -15 24 -22 44 -22
l29 0 -5 -62 c-5 -54 -2 -70 18 -108 14 -25 44 -58 67 -75 86 -61 217 -29 270
66 25 44 33 115 18 157 l-8 22 143 0 144 0 0 -74 c-1 -67 2 -78 29 -117 34
-47 85 -78 145 -86 61 -8 142 35 177 94 27 47 36 116 20 161 -7 19 -5 22 16
22 49 0 75 61 39 93 -17 15 -69 17 -538 17 l-520 0 -16 65 c-8 35 -13 67 -10
70 3 3 247 5 542 5 435 0 540 3 549 13 11 14 23 77 106 541 44 244 45 259 29
277 -16 18 -46 19 -728 21 l-711 3 -42 175 c-28 119 -47 178 -59 187 -13 9
-62 13 -171 13 -140 0 -155 -2 -173 -20z m685 -492 c22 -97 23 -109 11 -114
-7 -3 -52 -4 -101 -2 l-89 3 -17 68 -17 67 104 0 c99 0 104 -1 109 -22z m375
-48 l0 -70 -115 0 c-131 0 -126 -3 -140 93 l-7 47 131 0 131 0 0 -70z m380 50
c0 -10 -5 -42 -11 -70 l-11 -50 -119 0 -119 0 0 70 0 70 130 0 c122 0 130 -1
130 -20z m330 7 c0 -8 -5 -39 -11 -70 l-12 -57 -103 0 c-118 0 -113 -4 -93 90
l11 50 104 0 c80 0 104 -3 104 -13z m-1034 -274 c3 -21 10 -55 14 -75 l8 -38
-93 0 -93 0 -16 65 c-9 35 -16 69 -16 75 0 6 35 10 95 10 l94 0 7 -37z m324
-38 l0 -75 -95 0 -94 0 -7 38 c-3 20 -10 54 -14 75 l-8 37 109 0 109 0 0 -75z
m337 58 c-3 -10 -8 -36 -12 -58 -12 -79 -7 -75 -111 -75 l-94 0 0 75 0 75 111
0 c100 0 110 -2 106 -17z m330 0 c-3 -10 -8 -36 -12 -58 -12 -79 -5 -75 -121
-75 -71 0 -104 4 -104 11 0 7 5 40 12 75 l11 64 109 0 c99 0 109 -2 105 -17z
m-942 -280 c3 -21 9 -48 12 -60 5 -23 3 -23 -81 -23 l-85 0 -11 43 c-6 23 -13
47 -15 54 -6 20 6 23 91 23 l82 0 7 -37z m275 -23 l0 -60 -74 0 -73 0 -7 38
c-14 84 -15 82 74 82 l80 0 0 -60z m287 38 c-3 -13 -9 -40 -12 -60 l-7 -38
-74 0 -74 0 0 60 0 60 86 0 c84 0 86 0 81 -22z m333 12 c0 -5 -5 -32 -11 -60
l-11 -50 -108 0 -107 0 8 48 c14 76 8 72 124 72 60 0 105 -4 105 -10z m-768
-497 c25 -23 24 -87 -2 -113 -25 -25 -80 -26 -111 -1 -17 13 -23 29 -23 56 0
73 81 108 136 58z m651 -4 c23 -29 22 -84 -3 -109 -25 -25 -80 -26 -111 -1
-17 13 -23 29 -23 56 0 75 89 111 137 54z"/>
</g>
</svg>
